HIERARCHY
ROOT root
{
	OFFSET	0	13.1	24.9
	CHANNELS 6  Xposition Yposition Zposition Xrotation Yrotation Zrotation
	JOINT spine_1
	{
		OFFSET	0	9.99999	0
		CHANNELS 3  Xrotation Yrotation Zrotation
		JOINT spine_2
		{
			OFFSET	0	112	-10
			CHANNELS 3  Xrotation Yrotation Zrotation
			JOINT spine_3
			{
				OFFSET	0	206.5	19.3
				CHANNELS 3  Xrotation Yrotation Zrotation
				JOINT spine_4
				{
					OFFSET	0	110.4	14.6
					CHANNELS 3  Xrotation Yrotation Zrotation
					JOINT neck_1
					{
						OFFSET	0	71.8	-50.3
						CHANNELS 3  Xrotation Yrotation Zrotation
						JOINT neck_2
						{
							OFFSET	0	86.2	-25.8
							CHANNELS 3  Xrotation Yrotation Zrotation
							JOINT head_ee
							{
								OFFSET	0	179.8	-8.7
								CHANNELS 3  Xrotation Yrotation Zrotation
								End Site
								{
									OFFSET	1	0	0
								}
							}
						}
					}
					JOINT left_clavicle
					{
						OFFSET	-43.2	22.4	-70.8
						CHANNELS 3  Xrotation Yrotation Zrotation
						JOINT left_shoulder
						{
							OFFSET	-93.9	-5.79999	48.7
							CHANNELS 3  Xrotation Yrotation Zrotation
							JOINT left_elbow
							{
								OFFSET	-291.4	-30.8	15.2
								CHANNELS 3  Xrotation Yrotation Zrotation
								JOINT left_lowarm_twist
								{
									OFFSET	-110.7	-3.89999	13.6
									CHANNELS 3  Xrotation Yrotation Zrotation
									JOINT left_hand
									{
										OFFSET	-110.7	-3.89999	13.6
										CHANNELS 3  Xrotation Yrotation Zrotation
										JOINT left_ee
										{
											OFFSET	-80.8	-5.10001	12.1
											CHANNELS 3  Xrotation Yrotation Zrotation
											End Site
											{
												OFFSET	1	0	0
											}
										}
									}
								}
							}
						}
					}
					JOINT right_clavicle
					{
						OFFSET	43.2	22.4	-70.8
						CHANNELS 3  Xrotation Yrotation Zrotation
						JOINT right_shoulder
						{
							OFFSET	93.9	-5.79999	48.7
							CHANNELS 3  Xrotation Yrotation Zrotation
							JOINT right_elbow
							{
								OFFSET	291.4	-30.8	15.2
								CHANNELS 3  Xrotation Yrotation Zrotation
								JOINT right_lowarm_twist
								{
									OFFSET	110.7	-3.89999	13.6
									CHANNELS 3  Xrotation Yrotation Zrotation
									JOINT right_hand
									{
										OFFSET	110.7	-3.89999	13.6
										CHANNELS 3  Xrotation Yrotation Zrotation
										JOINT right_ee
										{
											OFFSET	80.8	-5.10001	12.1
											CHANNELS 3  Xrotation Yrotation Zrotation
											End Site
											{
												OFFSET	1	0	0
											}
										}
									}
								}
							}
						}
					}
				}
			}
		}
	}
	JOINT left_hip
	{
		OFFSET	-82.8	-127.5	0.300001
		CHANNELS 3  Xrotation Yrotation Zrotation
		JOINT left_knee
		{
			OFFSET	-28.2	-396.7	2.2
			CHANNELS 3  Xrotation Yrotation Zrotation
			JOINT left_ankle
			{
				OFFSET	-11.7	-411.3	35.4
				CHANNELS 3  Xrotation Yrotation Zrotation
				JOINT left_toes
				{
					OFFSET	0	-60	-88.6
					CHANNELS 3  Xrotation Yrotation Zrotation
					JOINT left_foot_ee
					{
						OFFSET	-22.5	-16.5	-42.2
						CHANNELS 3  Xrotation Yrotation Zrotation
						End Site
						{
							OFFSET	1	0	0
						}
					}
				}
			}
		}
	}
	JOINT right_hip
	{
		OFFSET	82.8	-127.5	0.300001
		CHANNELS 3  Xrotation Yrotation Zrotation
		JOINT right_knee
		{
			OFFSET	28.2	-396.7	2.2
			CHANNELS 3  Xrotation Yrotation Zrotation
			JOINT right_ankle
			{
				OFFSET	11.7	-411.3	35.4
				CHANNELS 3  Xrotation Yrotation Zrotation
				JOINT right_toes
				{
					OFFSET	0	-60	-88.6
					CHANNELS 3  Xrotation Yrotation Zrotation
					JOINT right_foot_ee
					{
						OFFSET	22.5	-16.5	-42.2
						CHANNELS 3  Xrotation Yrotation Zrotation
						End Site
						{
							OFFSET	1	0	0
						}
					}
				}
			}
		}
	}
}
MOTION
Frames: 5
Frame Time: 0.02
1045.67 723.128 -1466.87 -90.1248 78.5142 84.1912 5.52998 0.511541 2.93093 5.5347 0.324086 2.95751 5.54663 -0.0171349 2.97515 5.53456 0.452743 2.94058 -23.2174 7.6433 -7.13705 -23.6885 17.9607 -2.91348 -0.0 0.0 -0.0 -8.53451 7.09288 -14.866 -19.1455 -37.614 78.0624 0.489092 -13.6195 0.0584053 -19.6721 -1.09157 2.25386 3.71592 11.5447 29.8454 -0.0 0.0 -0.0 9.83026 -8.32787 -18.7108 -10.3055 18.1342 -65.4469 2.78644 54.0678 -1.42205 55.5654 1.39541 6.68412 5.39707 -16.4526 -44.8876 0.0 0.0 0.0 26.2591 -10.9359 0.227624 -16.1087 0.321677 2.443 30.1689 10.1846 -3.91589 -35.405 0.0 0.0 -0.0 0.0 -0.0 20.043 16.3568 -3.5228 -4.76402 -0.166624 -0.711939 31.4783 -27.1394 4.33454 -15.6833 0.0 0.0 0.0 0.0 0.0 
1037.71 719.725 -1468.49 -88.8451 78.692 83.0951 5.49086 0.619016 2.8308 5.49521 0.437706 2.86442 5.51267 0.104843 2.89574 5.50141 0.560669 2.84292 -22.3162 7.64752 -7.82851 -22.7522 18.4054 -3.67944 -0.0 0.0 -0.0 -8.41228 5.95995 -14.9803 -18.723 -37.4369 78.3518 0.549204 -15.2197 0.0733759 -19.7534 -1.09764 2.26231 3.71748 12.9485 30.2777 -0.0 0.0 -0.0 9.81617 -7.15695 -18.7925 -10.5702 16.657 -65.426 2.76951 53.9019 -1.40836 56.5915 1.48005 6.78475 5.2385 -15.8177 -43.3084 0.0 0.0 0.0 25.2813 -10.9266 -0.0145288 -15.8118 0.322 2.39744 30.1676 9.94016 -3.91461 -34.5892 0.0 0.0 -0.0 0.0 -0.0 19.3817 16.0085 -3.72785 -6.06266 -0.201718 -0.908141 34.0863 -26.3442 4.60292 -15.9652 0.0 0.0 0.0 0.0 0.0 
1035.1 722.968 -1468.4 -89.7392 78.4805 84.0286 5.50966 0.529052 2.81801 5.51401 0.348737 2.84593 5.52692 0.019196 2.86714 5.51576 0.471583 2.82819 -22.6183 7.66633 -8.06256 -23.0637 18.5085 -3.8456 -0.0 0.0 -0.0 -8.30975 5.13327 -15.0296 -18.2859 -38.5422 78.0915 0.628327 -17.2891 0.0955263 -19.5172 -1.08002 2.23772 3.96737 13.6767 32.3652 -0.0 0.0 -0.0 9.60907 -8.1238 -18.3095 -11.5174 15.9932 -65.9606 2.67132 52.9128 -1.32952 55.6646 1.40351 6.69391 5.27846 -14.7436 -43.401 0.0 0.0 0.0 24.6247 -10.941 0.0281119 -14.9624 0.321619 2.26712 28.2449 11.4707 -3.71245 -34.058 0.0 0.0 -0.0 0.0 -0.0 20.0328 14.2549 -3.6508 -6.80988 -0.219891 -1.02137 34.7771 -26.2377 4.67458 -18.1452 0.0 0.0 0.0 0.0 0.0 
1032.53 723.679 -1466.7 -89.5507 78.4606 83.9414 5.44514 0.534442 2.76729 5.44933 0.35734 2.79566 5.46259 0.0303685 2.81822 5.45182 0.474899 2.77812 -23.4457 8.00184 -7.50757 -23.9714 18.7869 -3.04134 -0.0 0.0 -0.0 -8.17864 4.57934 -14.9346 -17.8877 -39.9487 77.8582 0.703107 -19.2032 0.118943 -19.4659 -1.07621 2.23238 4.14294 14.1509 33.8416 -0.0 0.0 -0.0 9.58979 -8.64551 -18.2252 -12.8974 15.244 -66.2441 2.54225 51.54 -1.22748 54.6413 1.32075 6.59223 5.23876 -14.0461 -42.8643 0.0 0.0 0.0 24.1452 -10.9174 0.117739 -14.5259 0.320672 2.20015 27.0165 12.9678 -3.5839 -33.6766 0.0 0.0 -0.0 0.0 -0.0 20.3828 12.6951 -4.05109 -7.46947 -0.234704 -1.12151 34.1781 -26.303 4.6117 -20.7742 0.0 0.0 0.0 0.0 0.0 
1025.74 723.88 -1465.22 -89.9282 78.3113 84.3257 5.49254 0.499323 2.76631 5.49674 0.322355 2.79244 5.50822 -0.00180904 2.81097 5.49746 0.441981 2.77604 -23.7279 8.61936 -6.30515 -24.3611 19.4039 -1.55846 -0.0 0.0 -0.0 -7.91253 4.48611 -14.4338 -17.3257 -40.8793 77.5879 0.746149 -20.2853 0.133484 -20.117 -1.12497 2.30002 4.28359 14.7713 35.1021 -0.0 0.0 -0.0 9.64388 -7.92096 -18.394 -13.5301 14.3977 -66.3725 2.32802 49.0635 -1.06262 53.8317 1.25658 6.51075 5.13488 -13.1791 -41.7103 0.0 0.0 0.0 23.7236 -10.9205 0.00206325 -13.6657 0.317313 2.06823 27.2651 12.8496 -3.6113 -33.0417 0.0 0.0 -0.0 0.0 -0.0 21.1614 11.7541 -4.28223 -9.63995 -0.275291 -1.45208 35.2104 -24.9008 4.68141 -23.2738 0.0 0.0 0.0 0.0 0.0 
